<?xml version="1.0" encoding="UTF-8"?>
<svg id="Layer_1" xmlns="http://www.w3.org/2000/svg" width="1440" height="810" version="1.1" xmlns:xlink="http://www.w3.org/1999/xlink" viewBox="0 0 1440 810">
  <!-- Generator: Adobe Illustrator 30.2.1, SVG Export Plug-In . SVG Version: 2.1.1 Build 1)  -->
  <defs>
    <style>
      .st0 {
        fill: #898ef5;
      }

      .st1 {
        fill: url(#linear-gradient1);
      }

      .st2 {
        fill: #39dce9;
      }

      .st3 {
        fill: url(#linear-gradient);
      }
    </style>
    <linearGradient id="linear-gradient" x1="675.5079346" y1="404.3818817" x2="742.7286065" y2="404.3818817" gradientUnits="userSpaceOnUse">
      <stop offset=".15" stop-color="#898ef5"/>
      <stop offset=".8" stop-color="#cf64f3"/>
    </linearGradient>
    <linearGradient id="linear-gradient1" x1="622.2343452" y1="414.2628174" x2="682.4815063" y2="414.2628174" gradientUnits="userSpaceOnUse">
      <stop offset=".2" stop-color="#39dce9"/>
      <stop offset=".85" stop-color="#898ef5"/>
    </linearGradient>
  </defs>
  <g>
    <rect x="468.8518677" y="345.2592773" width="16.2962646" height="118.888855" rx="2" ry="2"/>
    <rect x="859.3703613" y="345.2592773" width="16.2963257" height="118.888855" rx="2" ry="2"/>
    <path d="M991,345.2592773h-92.2963257c-1.1045532,0-2,.8953857-2,2v11.4074097c0,1.1045532.8954468,2,2,2h38v101.4814453c0,1.1046143.8954468,2,2,2h12.2963257c1.1045532,0,2-.8953857,2-2v-101.4814453h38c1.1045532,0,2-.8954468,2-2v-11.4074097c0-1.1046143-.8954468-2-2-2Z"/>
    <path d="M838.777771,448.666687h-65.0370483v-101.4074097c0-1.1046143-.8953857-2-2-2h-12.2962646c-1.1045532,0-2,.8953857-2,2v114.888855c0,1.1046143.8954468,2,2,2h79.333313c1.1045532,0,2-.8953857,2-2v-11.4814453c0-1.1046143-.8954468-2-2-2Z"/>
    <path class="st2" d="M444.3200073,345.2592773h-12.576416c-.7871704,0-1.5019531.4567261-1.8291016,1.1687012l-42.960083,93.4979248-42.960144-93.4979248c-.3271484-.7119751-1.0419312-1.1687012-1.8290405-1.1687012h-12.576416c-1.460083,0-2.4335327,1.4987183-1.8331909,2.8223877l52.1102905,114.888855c.3251343.7167969,1.0424194,1.1776123,1.8331299,1.1776123h10.5107422c.7907104,0,1.5079956-.4608154,1.8331299-1.1776123l52.1102295-114.888855c.6004028-1.3236694-.3730469-2.8223877-1.8331299-2.8223877Z"/>
    <path d="M573.3248901,416.862915c19.3030396-.5458374,34.7861938-16.3538208,34.7861938-35.7888184v-.000061c0-19.7799683-16.03479-35.8147583-35.8147583-35.8147583h-61c-1.1046143,0-2,.8953857-2,2v10.9629517c0,1.1045532.8953857,2,2,2h60.5925903c11.4138794,0,20.666626,9.2527466,20.666626,20.666626v.000061c0,11.4138794-9.2527466,20.666626-20.666626,20.666626h-60.5925903c-1.1046143,0-2,.8954468-2,2v58.5925903c0,1.1045532.8953857,2,2,2h11.555542c1.1045532,0,2-.8954468,2-2v-45.2592163h27.111084l39.7124023,45.8994141c.7471313.8635864,1.8327026,1.3598022,2.9746704,1.3598022h11.9502563c2.8088379,0,4.3260498-3.2927246,2.5010986-5.4279175l-35.7764893-41.8572998Z"/>
    <path d="M1107.444458,345.2592773h-9.6327515c-.6893311,0-1.3300171.3549194-1.6956177.9393311l-36.5975952,58.5050659-36.5975342-58.5050659c-.3656006-.5844116-1.0062866-.9393311-1.6956177-.9393311h-9.6327515c-1.1045532,0-2,.8953857-2,2v8.9588013c0,.3893433.1136475.7702026.3269653,1.0958862l41.4508057,63.2786255v41.555542c0,1.1046143.8954468,2,2,2h12.2963257c1.1045532,0,2-.8953857,2-2v-41.555542l41.4507446-63.2786255c.2133789-.3256836.3270264-.706543.3270264-1.0958862v-8.9588013c0-1.1046143-.8954468-2-2-2Z"/>
  </g>
  <g>
    <path class="st3" d="M742.5146484,461.2532959l-57.6026611-115.1359253c-1.001709-2.0023193-3.8592529-2.0023193-4.8609619,0l-4.5430908,9.0807495,49.9523315,97.9129639-42.9787598-36.1481323v14.2592773l38.7793579,32.4595337c.3599243.3012695.8143311.4663696,1.2836914.4663696h18.1814575c1.4869995,0,2.4539795-1.5650024,1.7886353-2.8948364Z"/>
    <polygon class="st0" points="665.6101074 423.1865234 682.4815063 388.2963257 682.4815063 388.2962646 678.6732788 380.4208984 678.6732788 388.2963257 678.6732788 380.4208984 639.222229 451.777771 682.4815063 416.9629517 682.4815063 411.333313 665.6101074 423.1865234"/>
    <path class="st1" d="M639.222229,451.777771l39.4510498-71.3568726-7.7578735-16.043396-48.4671021,96.8757935c-.6653442,1.329834.3016357,2.8948364,1.7886353,2.8948364h18.1814575c.4693604,0,.9237671-.1651001,1.2836914-.4663696l38.7794189-32.4595337v-14.2592773l-43.2592773,34.8148193Z"/>
    <polygon class="st0" points="682.4815063 388.2962646 682.4815063 388.2963257 699.3528442 423.1865234 682.4815063 411.333313 682.4815063 416.9629517 725.4602661 453.111084 675.5079346 355.1981201 670.9154053 364.3775024 678.6732788 380.4208984 682.4815063 388.2962646"/>
  </g>
</svg>